<svg height="512pt" viewBox="0 -122 512.00025 512" width="512pt" xmlns="http://www.w3.org/2000/svg"><path d="m503.96875 109.441406-42.777344-6.214844-19.128906-38.761718c-3.4375-6.964844-13.367188-6.964844-16.800781 0l-19.132813 38.761718-42.777344 6.214844c-7.683593 1.117188-10.75 10.558594-5.191406 15.980469l30.953125 30.171875-7.304687 42.605469c-1.3125 7.652343 6.71875 13.488281 13.589844 9.875l38.261718-20.113281 38.261719 20.113281c6.871094 3.613281 14.90625-2.222657 13.589844-9.875l-7.304688-42.605469 30.953125-30.171875c5.5625-5.421875 2.492188-14.863281-5.191406-15.980469zm0 0" fill="#ffeaa8"/><path d="m482.816406 182.480469c-2.160156.140625-4.332031.234375-6.53125.234375-46.902344 0-86.308594-32.09375-97.457031-75.519532l-15.476563 2.25c-7.683593 1.117188-10.75 10.558594-5.191406 15.976563l30.953125 30.175781-7.304687 42.601563c-1.3125 7.65625 6.71875 13.488281 13.589844 9.875l38.261718-20.113281 38.261719 20.113281c6.871094 3.613281 14.90625-2.222657 13.589844-9.875zm0 0" fill="#ffe07d"/><path d="m148.648438 109.441406-42.777344-6.214844-19.128906-38.761718c-3.4375-6.964844-13.367188-6.964844-16.804688 0l-19.128906 38.761718-42.777344 6.214844c-7.683594 1.117188-10.753906 10.558594-5.191406 15.980469l30.953125 30.171875-7.308594 42.605469c-1.308594 7.652343 6.722656 13.488281 13.59375 9.875l38.261719-20.113281 38.261718 20.113281c6.871094 3.613281 14.902344-2.222657 13.589844-9.875l-7.304687-42.605469 30.953125-30.171875c5.558594-5.421875 2.492187-14.863281-5.191406-15.980469zm0 0" fill="#ffeaa8"/><path d="m127.496094 182.480469c-2.160156.140625-4.332032.234375-6.53125.234375-46.902344 0-86.308594-32.09375-97.457032-75.519532l-15.476562 2.246094c-7.683594 1.117188-10.753906 10.558594-5.191406 15.980469l30.953125 30.171875-7.308594 42.605469c-1.308594 7.652343 6.722656 13.488281 13.59375 9.875l38.261719-20.113281 38.261718 20.113281c6.871094 3.613281 14.902344-2.222657 13.589844-9.875zm0 0" fill="#ffe07d"/><path d="m381.179688 89.929688-76.632813-11.132813-34.273437-69.441406c-6.152344-12.472657-23.941407-12.472657-30.097657 0l-34.269531 69.441406-76.632812 11.132813c-13.765626 2-19.261719 18.917968-9.300782 28.625l55.453125 54.050781-13.089843 76.324219c-2.351563 13.710937 12.035156 24.164062 24.347656 17.691406l68.542968-36.035156 68.542969 36.035156c12.3125 6.472656 26.699219-3.980469 24.347657-17.691406l-13.089844-76.324219 55.453125-54.050781c9.957031-9.707032 4.460937-26.625-9.300781-28.625zm0 0" fill="#ffe07d"/><path d="m343.289062 220.773438c-3.871093.25-7.765624.421874-11.699218.421874-84.027344 0-154.621094-57.5-174.589844-135.292968l-27.726562 4.027344c-13.765626 2-19.261719 18.917968-9.300782 28.625l55.453125 54.050781-13.089843 76.324219c-2.351563 13.710937 12.035156 24.164062 24.347656 17.691406l68.542968-36.035156 68.542969 36.035156c12.3125 6.472656 26.699219-3.980469 24.347657-17.691406zm0 0" fill="#ffd064"/><path d="m310.554688 215.75-19.847657-7.445312c-6.445312-2.417969-10.714843-8.578126-10.714843-15.457032v-22.613281h-49.53125v22.613281c0 6.878906-4.269532 13.039063-10.714844 15.457032l-19.847656 7.445312c-6.445313 2.414062-10.714844 8.574219-10.714844 15.457031v34.101563l66.042968-34.722656 66.042969 34.722656v-34.101563c0-6.882812-4.269531-13.042969-10.714843-15.457031zm0 0" fill="#ecbd83"/><path d="m230.460938 170.234375v22.613281c0 1.527344-.285157 3-.683594 4.421875 7.691406 3.796875 16.308594 5.984375 25.449218 5.984375 9.140626 0 17.757813-2.1875 25.449219-5.984375-.402343-1.421875-.683593-2.894531-.683593-4.421875v-22.613281zm0 0" fill="#e2a975"/><path d="m255.226562 186.746094c-22.796874 0-41.277343-18.480469-41.277343-41.277344v-16.511719c0-18.234375 14.785156-33.019531 33.023437-33.019531h16.507813c18.238281 0 33.023437 14.785156 33.023437 33.019531v16.511719c0 22.796875-18.480468 41.277344-41.277344 41.277344zm0 0" fill="#f6d190"/><path d="m238.796875 153.722656h-.082031c-4.5625 0-8.253906-3.695312-8.253906-8.253906s3.691406-8.253906 8.253906-8.253906 8.296875 3.695312 8.296875 8.253906-3.652344 8.253906-8.214844 8.253906zm0 0" fill="#6e4848"/><path d="m271.738281 153.722656h-.082031c-4.5625 0-8.253906-3.695312-8.253906-8.253906s3.691406-8.253906 8.253906-8.253906 8.296875 3.695312 8.296875 8.253906-3.652344 8.253906-8.214844 8.253906zm0 0" fill="#6e4848"/><path d="m230.460938 145.46875v-45.105469c-9.828126 5.71875-16.511719 16.402344-16.511719 28.59375v16.511719c0 22.796875 18.480469 41.277344 41.277343 41.277344 2.828126 0 5.726563-.300782 8.394532-.839844-18.835938-3.828125-33.160156-20.46875-33.160156-40.4375zm0 0" fill="#ecbd83"/><path d="m310.554688 215.75-19.847657-7.445312c-.566406-.210938-1.132812-.464844-1.660156-.730469l-4.761719 4.710937c-16.089844 15.949219-42.027344 15.949219-58.117187 0l-4.761719-4.710937c-.53125.265625-1.097656.519531-1.660156.730469l-19.851563 7.445312c-6.441406 2.414062-10.710937 8.574219-10.710937 15.457031v34.101563l66.042968-34.722656 66.039063 34.722656v-34.101563c.003906-6.882812-4.265625-13.042969-10.710937-15.457031zm0 0" fill="#ff8b5a"/><path d="m220.046875 109.828125c9.320313 4.546875 39.558594 17.8125 76.441406 18.992187-.078125-18.171874-14.816406-32.882812-33.007812-32.882812h-16.511719c-11.105469 0-20.933594 5.484375-26.921875 13.890625zm0 0" fill="#6e4848"/></svg>