<svg height="512pt" viewBox="-20 0 512 512" width="512pt" xmlns="http://www.w3.org/2000/svg"><path d="m339.558594 512h-302.335938c-5.523437 0-10-4.476562-10-10v-21.300781c0-18.296875 14.835938-33.132813 33.136719-33.132813h256.066406c18.296875 0 33.132813 14.832032 33.132813 33.132813v21.300781c0 5.523438-4.476563 10-10 10zm0 0" fill="#48ffe0"/><path d="m349.558594 479.878906v22.117188c0 5.523437-4.476563 10-10 10h-12.210938v-32.117188c0-17.84375-15.210937-32.316406-33.972656-32.316406h22.210938c18.761718 0 33.972656 14.472656 33.972656 32.316406zm0 0" fill="#00e5b9"/><path d="m251.796875 458.960938c0 19.449218-28.945313 48.308593-64.652344 48.308593-35.703125 0-64.652343-28.859375-64.652343-48.308593 0-19.453126 28.949218-22.128907 64.652343-22.128907 35.707031 0 64.652344 2.675781 64.652344 22.128907zm0 0" fill="#e3f4ff"/><path d="m189.15625 474.355469h-1.527344c-16.640625 0-30.125-13.488281-30.125-30.121094v-36.925781h61.773438v36.925781c0 16.636719-13.488282 30.121094-30.121094 30.121094zm0 0" fill="#fecbaa"/><path d="m347.027344 182.867188v17.441406c0 30.523437-19.261719 56.554687-46.304688 66.589844-7.695312 2.863281-16.019531 4.421874-24.714844 4.421874h-177.367187c-8.683594 0-17.019531-1.558593-24.703125-4.421874-27.042969-10.035157-46.316406-36.066407-46.316406-66.589844v-26.578125c0-2.296875.0625-4.585938.183594-6.863281 3.574218-66.773438 58.84375-119.828126 126.507812-119.828126h66.496094c5.386718.019532 9.726562 4.4375 9.726562 9.828126v82.25c0 18.738281 15.195313 33.921874 33.933594 33.921874h72.730469c3.359375 0 6.316406 1.679688 8.097656 4.246094 1.09375 1.585938 1.730469 3.511719 1.730469 5.582032zm0 0" fill="#618baa"/><path d="m347.027344 182.867188v17.441406c0 30.523437-19.261719 56.554687-46.304688 66.589844-7.695312 2.863281-16.019531 4.421874-24.714844 4.421874h-177.367187c-8.683594 0-17.019531-1.558593-24.703125-4.421874-27.042969-10.035157-46.316406-36.066407-46.316406-66.589844v-26.578125c0-2.296875.0625-4.585938.183594-6.863281 2.636718 36.820312 33.347656 65.859374 70.847656 65.859374h177.34375c33.871094 0 62.214844-23.714843 69.300781-55.441406 1.09375 1.585938 1.730469 3.511719 1.730469 5.582032zm0 0" fill="#4e7693"/><path d="m354.675781 278.632812c0 20.742188-16.8125 37.554688-37.550781 37.554688-20.742188 0-37.554688-16.8125-37.554688-37.554688 0-20.738281 16.8125-37.550781 37.554688-37.550781 20.738281 0 37.550781 16.8125 37.550781 37.550781zm0 0" fill="#fecbaa"/><path d="m95.082031 278.632812c0 20.742188-16.8125 37.554688-37.554687 37.554688-20.738282 0-37.550782-16.8125-37.550782-37.554688 0-20.738281 16.8125-37.550781 37.550782-37.550781 20.742187 0 37.554687 16.8125 37.554687 37.550781zm0 0" fill="#fecbaa"/><path d="m306.03125 173.042969-2.535156 44.808593-2.777344 49.050782-4.292969 75.847656c-2.457031 43.414062-38.375 77.355469-81.855469 77.355469h-54.492187c-6.925781 0-13.65625-.863281-20.09375-2.484375-4.375-1.101563-7.453125-5.027344-7.453125-9.542969v-41.472656c0-5.425781-4.394531-9.824219-9.820312-9.824219h-34.242188c-4.941406 0-9.144531-3.664062-9.75-8.5625-.222656-1.804688-.386719-3.628906-.492188-5.46875l-4.292968-75.847656-5.628906-99.4375c-.875-15.394532 11.375-28.351563 26.789062-28.351563h135.441406c0 18.738281 15.191406 33.929688 33.933594 33.929688zm0 0" fill="#fedfc5"/><path d="m132.527344 277.5625h-.175782c-4.265624 0-7.726562-3.460938-7.726562-7.726562 0-4.269532 3.460938-7.726563 7.726562-7.726563h.175782c4.269531 0 7.726562 3.457031 7.726562 7.726563 0 4.265624-3.457031 7.726562-7.726562 7.726562zm0 0" fill="#4e7693"/><path d="m242.300781 277.5625h-.179687c-4.265625 0-7.722656-3.460938-7.722656-7.726562 0-4.269532 3.457031-7.726563 7.722656-7.726563h.179687c4.265625 0 7.722657 3.457031 7.722657 7.726563 0 4.265624-3.457032 7.726562-7.722657 7.726562zm0 0" fill="#4e7693"/><path d="m187.324219 385.183594c-22.96875 0-42.269531-16.46875-45.890625-39.15625-.675782-4.214844 2.195312-8.175782 6.410156-8.847656 4.210938-.671876 8.175781 2.195312 8.847656 6.410156 2.417969 15.144531 15.300782 26.140625 30.632813 26.140625s28.21875-10.996094 30.636719-26.140625c.671874-4.214844 4.640624-7.078125 8.847656-6.410156 4.214844.671874 7.085937 4.632812 6.410156 8.847656-3.621094 22.6875-22.921875 39.15625-45.894531 39.15625zm0 0" fill="#ffae85"/><path d="m59.464844 217.84375h112.09375c31.902344 0 57.761718-25.859375 57.761718-57.761719v-41.574219h-130.121093c-25.601563 0-46.355469 20.753907-46.355469 46.355469v46.359375c0 3.65625 2.964844 6.621094 6.621094 6.621094zm0 0" fill="#618baa"/><path d="m321.808594 173.042969v38.175781c0 3.660156-2.96875 6.628906-6.628906 6.628906h-47.332032c-31.902344 0-57.765625-25.859375-57.765625-57.761718v-41.574219h20.453125v20.601562c0 18.738281 15.191406 33.929688 33.929688 33.929688zm0 0" fill="#618baa"/><path d="m321.808594 168.265625c-4.269532 0-7.726563 3.457031-7.726563 7.722656v34.128907h-46.230469c-27.589843 0-50.039062-22.445313-50.039062-50.035157 0-4.269531-3.457031-7.726562-7.722656-7.726562-4.269532 0-7.726563 3.457031-7.726563 7.726562 0 11.40625 2.9375 22.136719 8.085938 31.484375-9.46875 11.667969-23.785157 18.550782-38.890625 18.550782h-110.988282v-45.253907c0-4.265625-3.460937-7.722656-7.726562-7.722656s-7.726562 3.457031-7.726562 7.722656v46.359375c0 7.910156 6.4375 14.347656 14.351562 14.347656h112.089844c18.371094 0 35.84375-7.777343 48.167968-21.128906 11.976563 12.980469 29.113282 21.128906 48.125 21.128906h47.335938c7.910156 0 14.347656-6.4375 14.347656-14.347656v-35.234375c0-4.265625-3.460937-7.722656-7.726562-7.722656zm0 0" fill="#89b4c9"/><path d="m194.125 328.90625h-13.601562c-6.585938 0-11.640626-5.839844-10.699219-12.359375l6.800781-46.925781c.769531-5.316406 5.328125-9.261719 10.699219-9.261719 5.371093 0 9.929687 3.945313 10.699219 9.261719l6.800781 46.925781c.945312 6.519531-4.109375 12.359375-10.699219 12.359375zm0 0" fill="#fd8289"/><path d="m268.0625 258.40625c-1.449219 0-2.917969-.410156-4.222656-1.265625-13.582032-8.894531-30.175782-4.542969-30.339844-4.5-4.109375 1.113281-8.355469-1.296875-9.484375-5.398437-1.132813-4.097657 1.246094-8.335938 5.339844-9.488282.945312-.265625 23.382812-6.355468 42.949219 6.460938 3.570312 2.335937 4.566406 7.128906 2.230468 10.695312-1.484375 2.265625-3.953125 3.496094-6.472656 3.496094zm0 0" fill="#618baa"/><path d="m106.589844 258.40625c-2.519532 0-4.988282-1.230469-6.472656-3.496094-2.335938-3.566406-1.339844-8.359375 2.230468-10.695312 19.566406-12.816406 42.003906-6.726563 42.949219-6.460938 4.105469 1.15625 6.503906 5.421875 5.347656 9.527344-1.148437 4.101562-5.398437 6.496094-9.496093 5.359375-.316407-.085937-16.816407-4.355469-30.332032 4.5-1.308594.855469-2.777344 1.265625-4.226562 1.265625zm0 0" fill="#618baa"/><path d="m241.777344 116.425781h-27.46875c-3.445313 0-6.242188-2.792969-6.242188-6.242187v-27.464844c0-3.449219 2.796875-6.242188 6.242188-6.242188h27.46875c3.445312 0 6.242187 2.792969 6.242187 6.242188v27.464844c0 3.449218-2.796875 6.242187-6.242187 6.242187zm0 0" fill="#4e7693"/><path d="m248.015625 82.714844v27.46875c0 3.445312-2.789063 6.246094-6.238281 6.246094h-14.855469c3.449219 0 6.25-2.800782 6.25-6.246094v-27.46875c0-3.449219-2.800781-6.238282-6.25-6.238282h14.855469c3.449218 0 6.238281 2.789063 6.238281 6.238282zm0 0" fill="#2f5e75"/><path d="m320.609375 141.378906h-27.464844c-3.445312 0-6.242187-2.792968-6.242187-6.242187v-27.464844c0-3.449219 2.796875-6.242187 6.242187-6.242187h27.464844c3.449219 0 6.242187 2.792968 6.242187 6.242187v27.464844c0 3.449219-2.792968 6.242187-6.242187 6.242187zm0 0" fill="#618baa"/><path d="m326.851562 107.667969v27.464843c0 3.449219-2.792968 6.25-6.238281 6.25h-14.855469c3.449219 0 6.25-2.800781 6.25-6.25v-27.464843c0-3.449219-2.800781-6.238281-6.25-6.238281h14.855469c3.445313 0 6.238281 2.789062 6.238281 6.238281zm0 0" fill="#4e7693"/><path d="m300.636719 39.949219h-27.464844c-3.449219 0-6.242187-2.792969-6.242187-6.242188v-27.464843c0-3.445313 2.792968-6.242188 6.242187-6.242188h27.464844c3.449219 0 6.242187 2.796875 6.242187 6.242188v27.464843c0 3.449219-2.796875 6.242188-6.242187 6.242188zm0 0" fill="#48ffe0"/><path d="m306.875 6.238281v27.46875c0 3.445313-2.789062 6.246094-6.238281 6.246094h-14.855469c3.449219 0 6.25-2.800781 6.25-6.246094v-27.46875c0-3.449219-2.800781-6.238281-6.25-6.238281h14.855469c3.449219 0 6.238281 2.789062 6.238281 6.238281zm0 0" fill="#00e5b9"/><path d="m384.695312 79.847656h-27.464843c-3.449219 0-6.242188-2.796875-6.242188-6.242187v-27.464844c0-3.449219 2.792969-6.242187 6.242188-6.242187h27.464843c3.449219 0 6.242188 2.792968 6.242188 6.242187v27.464844c0 3.445312-2.792969 6.242187-6.242188 6.242187zm0 0" fill="#48ffe0"/><path d="m390.933594 46.136719v27.464843c0 3.449219-2.789063 6.25-6.238282 6.25h-14.851562c3.445312 0 6.246094-2.800781 6.246094-6.25v-27.464843c0-3.449219-2.800782-6.238281-6.246094-6.238281h14.851562c3.449219 0 6.238282 2.789062 6.238282 6.238281zm0 0" fill="#00e5b9"/><path d="m465.234375 46.871094h-27.464844c-3.449219 0-6.242187-2.796875-6.242187-6.242188v-27.46875c0-3.445312 2.792968-6.238281 6.242187-6.238281h27.464844c3.449219 0 6.242187 2.792969 6.242187 6.238281v27.46875c0 3.445313-2.792968 6.242188-6.242187 6.242188zm0 0" fill="#48ffe0"/><path d="m471.472656 13.160156v27.464844c0 3.449219-2.789062 6.25-6.238281 6.25h-14.851563c3.445313 0 6.246094-2.800781 6.246094-6.25v-27.464844c0-3.449218-2.800781-6.238281-6.246094-6.238281h14.851563c3.449219 0 6.238281 2.789063 6.238281 6.238281zm0 0" fill="#00e5b9"/><path d="m425.40625 179.15625h-27.464844c-3.449218 0-6.242187-2.796875-6.242187-6.242188v-27.46875c0-3.445312 2.792969-6.242187 6.242187-6.242187h27.464844c3.445312 0 6.242188 2.796875 6.242188 6.242187v27.46875c0 3.445313-2.796876 6.242188-6.242188 6.242188zm0 0" fill="#48ffe0"/><path d="m431.644531 145.441406v27.46875c0 3.449219-2.789062 6.246094-6.238281 6.246094h-14.851562c3.445312 0 6.246093-2.796875 6.246093-6.246094v-27.46875c0-3.445312-2.800781-6.238281-6.246093-6.238281h14.851562c3.449219 0 6.238281 2.792969 6.238281 6.238281zm0 0" fill="#00e5b9"/><path d="m33.707031 432.152344h-27.464843c-3.445313 0-6.242188-2.792969-6.242188-6.242188v-27.464844c0-3.449218 2.796875-6.242187 6.242188-6.242187h27.464843c3.449219 0 6.242188 2.792969 6.242188 6.242187v27.464844c0 3.449219-2.792969 6.242188-6.242188 6.242188zm0 0" fill="#48ffe0"/><path d="m39.945312 398.441406v27.464844c0 3.449219-2.789062 6.25-6.234374 6.25h-14.855469c3.449219 0 6.246093-2.800781 6.246093-6.25v-27.464844c0-3.449218-2.796874-6.238281-6.246093-6.238281h14.855469c3.445312 0 6.234374 2.789063 6.234374 6.238281zm0 0" fill="#00e5b9"/><path d="m96.203125 376.753906h-27.464844c-3.449219 0-6.242187-2.792968-6.242187-6.242187v-27.464844c0-3.449219 2.792968-6.242187 6.242187-6.242187h27.464844c3.449219 0 6.242187 2.792968 6.242187 6.242187v27.464844c0 3.449219-2.792968 6.242187-6.242187 6.242187zm0 0" fill="#fecbaa"/><path d="m102.441406 343.042969v27.464843c0 3.449219-2.789062 6.25-6.238281 6.25h-14.851563c3.449219 0 6.246094-2.800781 6.246094-6.25v-27.464843c0-3.449219-2.796875-6.238281-6.246094-6.238281h14.851563c3.449219 0 6.238281 2.789062 6.238281 6.238281zm0 0" fill="#ffae85"/><path d="m104.476562 461.386719h-27.464843c-3.445313 0-6.242188-2.796875-6.242188-6.242188v-27.464843c0-3.449219 2.796875-6.242188 6.242188-6.242188h27.464843c3.449219 0 6.242188 2.792969 6.242188 6.242188v27.464843c0 3.445313-2.792969 6.242188-6.242188 6.242188zm0 0" fill="#fedfc5"/><path d="m110.71875 427.675781v27.464844c0 3.449219-2.792969 6.25-6.238281 6.25h-14.855469c3.449219 0 6.246094-2.800781 6.246094-6.25v-27.464844c0-3.449219-2.796875-6.238281-6.246094-6.238281h14.855469c3.445312 0 6.238281 2.789062 6.238281 6.238281zm0 0" fill="#fecbaa"/></svg>